#!OML:ASF F:\VICON\USERDATA\INSTALL\rory3\rory3.ASF
:FULLY-SPECIFIED
:DEGREES
2479
root -0.0514328 17.3571 -0.259907 2.27869 2.44963 -1.10724
lowerback -3.5407 -0.800863 0.529147
upperback -2.67221 -1.07308 2.40248
thorax -0.72054 -0.524162 2.13728
lowerneck -11.9526 -14.7341 -15.1263
upperneck 35.9884 -21.0959 6.402
head 17.702 -10.0274 1.09153
rclavicle -8.19987e-015 2.70347e-014
rhumerus -14.9626 1.20547 -88.5672
rradius 108.286
rwrist 25.6402
rhand -24.4259 21.6996
rfingers 7.12502
rthumb 2.06604 -8.27017
lclavicle -8.19987e-015 2.70347e-014
lhumerus -3.79157 -2.56015 94.9971
lradius 122.46
lwrist -1.50676
lhand -15.3399 24.1374
lfingers 7.12502
lthumb 10.8369 53.8378
rfemur -0.530187 6.55233 21.3067
rtibia 12.6512
rfoot -12.5142 -11.4464
rtoes -11.031
lfemur -6.38637 -13.0243 -16.7922
ltibia 20.3602
lfoot -16.442 5.45476
ltoes -12.1211
2480
root -0.0571004 17.3525 -0.236735 2.15915 3.05498 -1.15291
lowerback -2.54553 -0.889855 0.532484
upperback -3.49476 -1.1546 2.27153
thorax -2.12372 -0.558866 2.02648
lowerneck -11.6168 -14.6372 -15.1077
upperneck 36.4597 -21.0647 6.30891
head 17.8585 -10.0379 1.07593
rclavicle 2.33572e-015 -1.66979e-014
rhumerus -15.8227 -1.38215 -87.7145
rradius 109.894
rwrist 25.6684
rhand -25.7256 21.3307
rfingers 7.12502
rthumb 0.810795 -8.64748
lclavicle 2.33572e-015 -1.66979e-014
lhumerus -5.29449 -0.567102 94.0006
lradius 123.6
lwrist -2.07853
lhand -15.8456 24.3626
lfingers 7.12502
lthumb 10.3491 54.088
rfemur -0.217163 6.00757 21.4525
rtibia 12.6507
rfoot -12.7428 -11.4324
rtoes -10.4647
lfemur -6.35538 -13.3495 -16.7246
ltibia 20.5068
lfoot -16.4805 5.23135
ltoes -12.5564
2481
root -0.0596374 17.3469 -0.215694 2.00283 3.61239 -1.06326
lowerback -2.23539 -0.995574 0.184057
upperback -3.81373 -1.28085 2.28326
thorax -2.61558 -0.609529 2.24465
lowerneck -11.6532 -14.5607 -15.2157
upperneck 36.7073 -20.9627 6.31568
head 18.0111 -10.0043 1.10981
rclavicle 9.59136e-015 7.15625e-015
rhumerus -15.804 -3.51447 -86.5085
rradius 111.496
rwrist 25.4668
rhand -27.159 20.5009
rfingers 7.12502
rthumb -0.573671 -9.47811
lclavicle 9.59136e-015 7.15625e-015
lhumerus -6.03193 0.619283 93.1849
lradius 124.427
lwrist -2.62914
lhand -16.377 24.3523
lfingers 7.12502
lthumb 9.83645 54.1026
rfemur 0.0760423 5.50381 21.4347
rtibia 12.7204
rfoot -12.891 -11.4969
rtoes -10.7869
lfemur -6.26014 -13.5932 -16.822
ltibia 20.63
lfoot -16.3962 4.9632
ltoes -12.8965
2482
root -0.0631266 17.3413 -0.192616 1.87583 4.08013 -0.96904
lowerback -2.2314 -1.08346 -0.17432
upperback -3.97568 -1.39331 2.28808
thorax -2.77288 -0.65383 2.45372
lowerneck -11.6879 -14.4531 -15.266
upperneck 36.8166 -20.8097 6.3532
head 18.0735 -9.94231 1.16637
rclavicle 4.37326e-015 -2.46493e-014
rhumerus -15.4887 -5.3466 -85.3034
rradius 113.04
rwrist 25.3908
rhand -28.2829 19.2771
rfingers 7.12502
rthumb -1.65915 -10.6962
lclavicle 4.37326e-015 -2.46493e-014
lhumerus -6.89847 0.810514 92.3874
lradius 125.182
lwrist -3.3111
lhand -17.0493 24.0129
lfingers 7.12502
lthumb 9.1878 53.7927
rfemur 0.334309 5.09048 21.4101
rtibia 12.7754
rfoot -13.0396 -11.5405
rtoes -10.853
lfemur -6.21026 -13.7061 -16.9144
ltibia 20.7817
lfoot -16.4805 4.55353
ltoes -12.454
2483
root -0.0658603 17.3362 -0.17066 1.80499 4.53343 -1.01463
lowerback -2.23113 -1.13027 -0.234323
upperback -4.15714 -1.45325 2.22927
thorax -2.95835 -0.68034 2.43013
lowerneck -11.7751 -14.3992 -15.2558
upperneck 36.9175 -20.7467 6.38378
head 18.1469 -9.90669 1.18508
rclavicle 1.2275e-014 -1.23246e-014
rhumerus -15.1009 -7.17573 -84.2754
rradius 114.599
rwrist 24.9896
rhand -28.0373 19.294
rfingers 7.12502
rthumb -1.42191 -10.681
lclavicle 1.2275e-014 -1.23246e-014
lhumerus -7.95244 0.0966312 91.4757
lradius 125.923
lwrist -3.94685
lhand -17.6366 23.4624
lfingers 7.12502
lthumb 8.62107 53.2664
rfemur 0.55134 4.69763 21.5302
rtibia 12.7563
rfoot -13.1324 -11.6021
rtoes -10.921
lfemur -6.27949 -13.7257 -16.8267
ltibia 21.0034
lfoot -16.5447 4.07061
ltoes -11.9492
2484
root -0.068707 17.3314 -0.15232 1.77284 4.9286 -1.19345
lowerback -2.34565 -1.19522 -0.0949756
upperback -4.28294 -1.53943 2.19637
thorax -3.02494 -0.726797 2.31778
lowerneck -11.8714 -14.302 -15.277
upperneck 36.8736 -20.6043 6.47988
head 18.1443 -9.83825 1.25875
rclavicle -5.11871e-015 -3.97569e-016
rhumerus -14.5022 -8.71041 -83.3224
rradius 116.182
rwrist 24.3236
rhand -27.2319 19.9596
rfingers 7.12502
rthumb -0.644081 -10.0192
lclavicle -5.11871e-015 -3.97569e-016
lhumerus -8.98934 -1.12961 90.4629
lradius 126.529
lwrist -4.66179
lhand -17.8761 22.7864
lfingers 7.12502
lthumb 8.38988 52.5998
rfemur 0.700354 4.36837 21.7823
rtibia 12.6922
rfoot -13.1782 -11.6637
rtoes -10.9956
lfemur -6.43594 -13.7091 -16.5745
ltibia 21.2603
lfoot -16.6143 3.77571
ltoes -12.8748
